{
  "asset": {
    "version": "2.0",
    "generator": "Sketchup glTF Exporter"
  },
  "scene": 0,
  "scenes": [
    {
      "nodes": [
        0
      ]
    }
  ],
  "nodes": [
    {
      "name": "root",
      "children": [
        1,
        2,
        3
      ]
    },
    {
      "name": "wooden floor",
      "mesh": 0
    },
    {
      "name": "whole thing",
      "mesh": 1
    },
    {
      "name": "tile",
      "mesh": 2
    }
  ],
  "materials": [
    {
      "pbrMetallicRoughness": {
        "baseColorTexture": {
          "index": 0
        },
        "metallicFactor": 0.0
      },
      "name": "Wood_ Floor"
    },
    {
      "pbrMetallicRoughness": {
        "baseColorTexture": {
          "index": 1
        },
        "metallicFactor": 0.0
      },
      "name": "Polished Concrete Old"
    },
    {
      "pbrMetallicRoughness": {
        "baseColorTexture": {
          "index": 2
        },
        "metallicFactor": 0.0
      },
      "name": "Tile Various Tan"
    },
    {
      "pbrMetallicRoughness": {
        "baseColorTexture": {
          "index": 3
        },
        "metallicFactor": 0.0
      },
      "name": "Blacktop Old 01"
    },
    {
      "pbrMetallicRoughness": {
        "baseColorTexture": {
          "index": 4
        },
        "metallicFactor": 0.0
      },
      "name": "Polished Concrete New"
    },
    {
      "pbrMetallicRoughness": {
        "baseColorTexture": {
          "index": 5
        },
        "metallicFactor": 0.0
      },
      "name": "[Field Square Tile]1"
    }
  ],
  "images": [
    {
      "bufferView": 0,
      "mimeType": "image/jpeg"
    },
    {
      "bufferView": 1,
      "mimeType": "image/jpeg"
    },
    {
      "bufferView": 2,
      "mimeType": "image/jpeg"
    },
    {
      "bufferView": 3,
      "mimeType": "image/jpeg"
    },
    {
      "bufferView": 4,
      "mimeType": "image/jpeg"
    },
    {
      "bufferView": 5,
      "mimeType": "image/jpeg"
    }
  ],
  "textures": [
    {
      "source": 0
    },
    {
      "source": 1
    },
    {
      "source": 2
    },
    {
      "source": 3
    },
    {
      "source": 4
    },
    {
      "source": 5
    }
  ],
  "meshes": [
    {
      "primitives": [
        {
          "attributes": {
            "POSITION": 0,
            "NORMAL": 1,
            "TEXCOORD_0": 2
          },
          "indices": 3,
          "mode": 4,
          "material": 0
        }
      ]
    },
    {
      "primitives": [
        {
          "attributes": {
            "POSITION": 0,
            "NORMAL": 1,
            "TEXCOORD_0": 2
          },
          "indices": 4,
          "mode": 4,
          "material": 1
        },
        {
          "attributes": {
            "POSITION": 0,
            "NORMAL": 1,
            "TEXCOORD_0": 2
          },
          "indices": 5,
          "mode": 4,
          "material": 2
        },
        {
          "attributes": {
            "POSITION": 0,
            "NORMAL": 1,
            "TEXCOORD_0": 2
          },
          "indices": 6,
          "mode": 4,
          "material": 3
        },
        {
          "attributes": {
            "POSITION": 0,
            "NORMAL": 1,
            "TEXCOORD_0": 2
          },
          "indices": 7,
          "mode": 4,
          "material": 4
        }
      ]
    },
    {
      "primitives": [
        {
          "attributes": {
            "POSITION": 0,
            "NORMAL": 1,
            "TEXCOORD_0": 2
          },
          "indices": 8,
          "mode": 4,
          "material": 5
        }
      ]
    }
  ],
  "accessors": [
    {
      "bufferView": 6,
      "componentType": 5126,
      "count": 1146,
      "type": "VEC3",
      "min": [
        -4.86,
        -0.02,
        -1.95
      ],
      "max": [
        8.1,
        2.78,
        6.61
      ]
    },
    {
      "bufferView": 7,
      "componentType": 5126,
      "count": 1146,
      "type": "VEC3",
      "min": [
        -1.01,
        -1.01,
        -1.01
      ],
      "max": [
        1.01,
        1.01,
        1.01
      ]
    },
    {
      "bufferView": 8,
      "componentType": 5126,
      "count": 1146,
      "type": "VEC2",
      "min": [
        -20.28,
        -9.64
      ],
      "max": [
        14.16,
        3.97
      ]
    },
    {
      "bufferView": 9,
      "componentType": 5123,
      "count": 168,
      "type": "SCALAR"
    },
    {
      "bufferView": 9,
      "componentType": 5123,
      "count": 2145,
      "type": "SCALAR",
      "byteOffset": 336
    },
    {
      "bufferView": 9,
      "componentType": 5123,
      "count": 96,
      "type": "SCALAR",
      "byteOffset": 4626
    },
    {
      "bufferView": 9,
      "componentType": 5123,
      "count": 18,
      "type": "SCALAR",
      "byteOffset": 4818
    },
    {
      "bufferView": 9,
      "componentType": 5123,
      "count": 30,
      "type": "SCALAR",
      "byteOffset": 4854
    },
    {
      "bufferView": 9,
      "componentType": 5123,
      "count": 93,
      "type": "SCALAR",
      "byteOffset": 4914
    }
  ],
  "bufferViews": [
    {
      "buffer": 0,
      "byteLength": 6574
    },
    {
      "buffer": 0,
      "byteOffset": 6574,
      "byteLength": 42181
    },
    {
      "buffer": 0,
      "byteOffset": 48755,
      "byteLength": 9540
    },
    {
      "buffer": 0,
      "byteOffset": 58295,
      "byteLength": 52321
    },
    {
      "buffer": 0,
      "byteOffset": 110616,
      "byteLength": 14768
    },
    {
      "buffer": 0,
      "byteOffset": 125384,
      "byteLength": 17393
    },
    {
      "buffer": 0,
      "byteOffset": 142788,
      "byteLength": 13752,
      "target": 34962,
      "byteStride": 12
    },
    {
      "buffer": 0,
      "byteOffset": 156540,
      "byteLength": 13752,
      "target": 34962,
      "byteStride": 12
    },
    {
      "buffer": 0,
      "byteOffset": 170296,
      "byteLength": 9168,
      "target": 34962,
      "byteStride": 8
    },
    {
      "buffer": 0,
      "byteOffset": 179464,
      "byteLength": 5100,
      "target": 34963
    }
  ],
  "buffers": [
    {
      "uri": "data:application/octet-stream;base64,",
      "byteLength": 184564
    }
  ]
}