{
  "asset": {
    "version": "2.0",
    "generator": "Sketchup glTF Exporter"
  },
  "scene": 0,
  "scenes": [
    {
      "nodes": [
        0
      ]
    }
  ],
  "nodes": [
    {
      "name": "root",
      "children": [
        1
      ]
    },
    {
      "name": "SimLab_2018-01-31-17-11-37",
      "children": [
        2,
        3,
        4,
        5
      ]
    },
    {
      "name": "3DGeom~1_Defintion#3",
      "mesh": 0
    },
    {
      "name": "3DGeom~2_Defintion",
      "mesh": 1
    },
    {
      "name": "3DGeom~3_Defintion",
      "mesh": 2
    },
    {
      "name": "3DGeom~4_Defintion",
      "mesh": 3
    }
  ],
  "materials": [
    {
      "pbrMetallicRoughness": {
        "baseColorFactor": [
          0.0,
          0.0,
          0.0,
          1.0
        ],
        "metallicFactor": 0.0
      },
      "name": "Ground_SG",
      "doubleSided": true
    },
    {
      "pbrMetallicRoughness": {
        "baseColorTexture": {
          "index": 0
        },
        "metallicFactor": 0.0
      },
      "name": "Windows_SG",
      "doubleSided": true
    },
    {
      "pbrMetallicRoughness": {
        "baseColorTexture": {
          "index": 1
        },
        "metallicFactor": 0.0
      },
      "name": "Body_SG1",
      "doubleSided": true
    },
    {
      "pbrMetallicRoughness": {
        "baseColorTexture": {
          "index": 2
        },
        "metallicFactor": 0.0
      },
      "name": "Interior_SG",
      "doubleSided": true
    }
  ],
  "images": [
    {
      "bufferView": 0,
      "mimeType": "image/jpeg"
    },
    {
      "bufferView": 1,
      "mimeType": "image/jpeg"
    },
    {
      "bufferView": 2,
      "mimeType": "image/jpeg"
    }
  ],
  "textures": [
    {
      "source": 0
    },
    {
      "source": 1
    },
    {
      "source": 2
    }
  ],
  "meshes": [
    {
      "primitives": [
        {
          "attributes": {
            "POSITION": 0,
            "NORMAL": 1
          },
          "indices": 5,
          "mode": 4,
          "material": 0
        }
      ]
    },
    {
      "primitives": [
        {
          "attributes": {
            "POSITION": 2,
            "NORMAL": 3,
            "TEXCOORD_0": 4
          },
          "indices": 6,
          "mode": 4,
          "material": 1
        }
      ]
    },
    {
      "primitives": [
        {
          "attributes": {
            "POSITION": 2,
            "NORMAL": 3,
            "TEXCOORD_0": 4
          },
          "indices": 7,
          "mode": 4,
          "material": 2
        }
      ]
    },
    {
      "primitives": [
        {
          "attributes": {
            "POSITION": 2,
            "NORMAL": 3,
            "TEXCOORD_0": 4
          },
          "indices": 8,
          "mode": 4,
          "material": 3
        }
      ]
    }
  ],
  "accessors": [
    {
      "bufferView": 3,
      "componentType": 5126,
      "count": 4,
      "type": "VEC3",
      "min": [
        -191.56,
        -186.36,
        -201.47
      ],
      "max": [
        620.29,
        -186.33,
        759.84
      ]
    },
    {
      "bufferView": 4,
      "componentType": 5126,
      "count": 4,
      "type": "VEC3",
      "min": [
        -0.02,
        0.99,
        -0.02
      ],
      "max": [
        0.02,
        1.01,
        0.01
      ]
    },
    {
      "bufferView": 5,
      "componentType": 5126,
      "count": 24976,
      "type": "VEC3",
      "min": [
        15.6,
        -187.33,
        -40.07
      ],
      "max": [
        418.75,
        187.33,
        624.95
      ]
    },
    {
      "bufferView": 6,
      "componentType": 5126,
      "count": 24976,
      "type": "VEC3",
      "min": [
        -1.01,
        -1.01,
        -1.01
      ],
      "max": [
        1.01,
        1.01,
        1.01
      ]
    },
    {
      "bufferView": 7,
      "componentType": 5126,
      "count": 24976,
      "type": "VEC2",
      "min": [
        0.0,
        0.01
      ],
      "max": [
        0.99,
        0.99
      ]
    },
    {
      "bufferView": 8,
      "componentType": 5121,
      "count": 6,
      "type": "SCALAR"
    },
    {
      "bufferView": 9,
      "componentType": 5123,
      "count": 450,
      "type": "SCALAR"
    },
    {
      "bufferView": 9,
      "componentType": 5123,
      "count": 17814,
      "type": "SCALAR",
      "byteOffset": 900
    },
    {
      "bufferView": 9,
      "componentType": 5123,
      "count": 6744,
      "type": "SCALAR",
      "byteOffset": 36528
    }
  ],
  "bufferViews": [
    {
      "buffer": 0,
      "byteLength": 285545
    },
    {
      "buffer": 0,
      "byteOffset": 285545,
      "byteLength": 285545
    },
    {
      "buffer": 0,
      "byteOffset": 571090,
      "byteLength": 262026
    },
    {
      "buffer": 0,
      "byteOffset": 833124,
      "byteLength": 48,
      "target": 34962,
      "byteStride": 12
    },
    {
      "buffer": 0,
      "byteOffset": 833172,
      "byteLength": 48,
      "target": 34962,
      "byteStride": 12
    },
    {
      "buffer": 0,
      "byteOffset": 833220,
      "byteLength": 299712,
      "target": 34962,
      "byteStride": 12
    },
    {
      "buffer": 0,
      "byteOffset": 1132932,
      "byteLength": 299712,
      "target": 34962,
      "byteStride": 12
    },
    {
      "buffer": 0,
      "byteOffset": 1432648,
      "byteLength": 199808,
      "target": 34962,
      "byteStride": 8
    },
    {
      "buffer": 0,
      "byteOffset": 1632456,
      "byteLength": 6,
      "target": 34963
    },
    {
      "buffer": 0,
      "byteOffset": 1632462,
      "byteLength": 50016,
      "target": 34963
    }
  ],
  "buffers": [
    {
      "uri": "data:application/octet-stream;base64,",
      "byteLength": 1682478
    }
  ]
}